<?xml version="1.0" encoding="UTF-8"?>
<svg id="Layer_2" xmlns="http://www.w3.org/2000/svg" version="1.1" viewBox="0 0 499.86 179.88">
  <!-- Generator: Adobe Illustrator 29.7.0, SVG Export Plug-In . SVG Version: 2.1.1 Build 138)  -->
  <defs>
    <style>
      .st0 {
        fill: #151616;
        fill-rule: evenodd;
      }
    </style>
  </defs>
  <g id="Layer_1-2">
    <path class="st0" d="M14.94,144.73c-.26.26-.53.53-.79.9h-6.22c-.39-.37-.66-.63-.92-.9.26-8.96.53-17.94.92-26.89h6.21c.35-.34.61-.34.79,0,.26.24.53.51.92.77.26.24.53.51.92.88.26.24.53.51.79.88.26.26.53.51.92.77.26.24.53.51.92.88.26.24.53.51.79.88.26.26.53.51.92.77.26.24.53.51.92.88.26.24.53.51.79.88.26.26.53.51.92.77.26.24.53.51.92.88.26.26.53.51.79.88.26.26.53.51.92.77.26.24.53.51.92.88.26.26.53.51.79.88.26.26.53.51.92.77.26.24.53.51.92.88.29.26.55.51.81.88.26.26.53.51.92.77h1.72c.26-.26.53-.51.92-.77.26-.37.53-.61.92-.88.26-.37.53-.63.79-.88.26-.26.53-.51.92-.77.26-.37.53-.61.92-.88.26-.37.53-.63.79-.88.26-.26.53-.51.92-.77.26-.37.53-.61.92-.88.26-.37.53-.63.79-.88.26-.26.53-.51.92-.77.26-.37.53-.63.92-.88.26-.37.53-.63.79-.88.26-.26.53-.51.92-.77.26-.37.53-.63.92-.88.26-.37.53-.63.81-.88.26-.26.53-.51.92-.77.26-.37.53-.63.92-.88.26-.37.53-.63.79-.88.26-.26.53-.53.92-.77h6.98c.26,8.96.53,17.94.92,26.89-.39.26-.66.53-.92.9-2.37-.37-4.74-.63-6.98-.9v-15.15h-.92c-.26.26-.53.51-.79.88-.39.26-.66.51-.92.77-.39.24-.66.51-.92.88-.29.26-.55.51-.81.88-.39.26-.66.51-.92.77-.39.24-.66.51-.92.88-.26.26-.53.51-.79.88-.39.26-.66.53-.92.77-.39.26-.66.51-.92.88-.26.26-.53.51-.79.9-.39.24-.66.51-.92.75-.39.26-.66.51-.92.88-.26.26-.53.51-.79.9-.39.24-.66.51-.92.75v4.3h-8.84v-5.05c-.26-.39-.53-.63-.79-.9-.39-.37-.66-.61-.92-.88-.39-.24-.66-.51-.92-.75-.26-.39-.53-.63-.79-.9-.39-.37-.66-.61-.92-.88-.39-.24-.66-.51-.92-.77-.26-.37-.53-.61-.79-.88h-.92c-.39-.37-.66-.63-.92-.88h.92c-.39-.26-.66-.51-.92-.77-.26-.37-.53-.61-.79-.88-.39-.37-.66-.63-.92-.88-.39-.26-.66-.51-.92-.77-.26-.37-.53-.61-.79-.88-.39-.37-.66-.63-.92-.88v.88h.92v.88h.79v.77h.92v.88h.92v.88h.79v.77c-.26-.26-.53-.51-.79-.77-.39-.37-.66-.61-.92-.88-.39-.37-.66-.63-.92-.88-.26-.26-.53-.51-.79-.77-.39-.37-.66-.61-.92-.88h-.92v15.15h.02ZM201.28,32.71c.26.26.53.51.92.88v26.91c-.39.24-.66.51-.92.88h-6.19c-.26-.37-.53-.63-.81-.88v-26.91c.29-.37.55-.61.81-.88h6.19ZM187.17,32.71c.26.26.53.51.92.88v26.91c-.39.24-.66.51-.92.88h-6.98c-.39-.37-.66-.63-.92-.88v-20.22h-34.15v20.22c-.42.24-.68.51-.95.88h-6.19c-.26-.37-.53-.63-.79-.88v-26.91c.26-.37.53-.61.79-.88h49.2,0ZM123.07,32.71c2.24.26,4.61.51,7,.88v26.91c-2.4.24-4.76.51-7,.88-.39-.37-.66-.63-.92-.88v-26.91c.26-.37.53-.61.92-.88h0ZM65.06,33.59v-.88h50.12v27.79c-2.37.24-4.76.51-7,.88-.39-.37-.66-.63-.92-.88v-9.22h.92c-.39-.37-.66-.63-.92-.88v.88h-34.29v9.22c-.39.24-.66.51-.92.88-2.37-.37-4.74-.63-6.98-.88v-26.91h0ZM57.14,32.71c.26.26.53.51.92.88v26.91c-.39.24-.66.51-.92.88-2.37-.37-4.74-.63-6.98-.88v-16.04h-.92c-.26.26-.53.51-.79.88-.39.26-.66.51-.92.9-.39.24-.66.51-.92.75-.29.26-.55.51-.81.9-.39.24-.66.51-.92.88-.39.24-.66.51-.92.75-.26.26-.53.51-.79.9-.39.24-.66.51-.92.88-.39.24-.66.51-.92.75-.26.26-.53.51-.79.9-.39.24-.66.51-.92.88-.39.24-.66.51-.92.75-.26.26-.53.51-.79.9-.39.24-.66.51-.92.88v5.05h-8.84v-5.05c-.26-.37-.53-.63-.79-.88-.39-.39-.66-.63-.92-.9-.39-.24-.66-.51-.92-.75-.26-.37-.53-.63-.79-.88-.39-.39-.66-.63-.92-.9-.39-.24-.66-.51-.92-.75-.26-.37-.53-.63-.79-.88-.39-.39-.66-.63-.92-.9-.39-.24-.66-.51-.92-.75-.26-.37-.53-.63-.79-.88-.39-.39-.66-.63-.92-.9-.39-.24-.66-.51-.92-.75-.26-.39-.53-.63-.79-.9-.39-.37-.66-.61-.92-.88h-.92v16.05c-.26.24-.53.51-.79.88h-6.31c-.39-.37-.66-.63-.92-.88v-26.92c.26-.37.53-.61.92-.88h6.21c.26.26.53.51.79.88.26.26.53.51.92.77.26.24.53.51.92.88.26.26.53.51.79.88.26.26.53.51.92.77.26.24.53.51.92.88.26.26.53.51.79.9.26.24.53.51.92.75.26.26.53.51.92.88.26.26.53.51.79.9.26.24.53.51.92.75.26.26.53.51.92.88.26.26.53.51.79.9.26.24.53.51.92.75.26.26.53.51.92.88.26.26.53.51.79.9.26.24.53.51.92.75.26.26.53.51.92.9.29.24.55.51.81.88.26.24.53.51.92.75h1.72c.26-.24.53-.51.92-.75.26-.37.53-.63.92-.88.26-.39.53-.63.79-.9.26-.24.53-.51.92-.75.26-.39.53-.63.92-.9.26-.37.53-.61.79-.88.26-.24.53-.51.92-.75.26-.39.53-.63.92-.9.26-.37.53-.61.79-.88.26-.24.53-.51.92-.75.26-.39.53-.63.92-.9.26-.37.53-.61.79-.88.26-.24.53-.51.92-.75.26-.39.53-.63.92-.9.26-.37.53-.63.81-.88.26-.26.53-.51.92-.77.26-.37.53-.61.92-.88.26-.37.53-.63.79-.88.26-.26.53-.51.92-.77.26-.37.53-.61.92-.88h6.16ZM485.08,74.77c.26.26.53.51.92.88v6.82c-.39.26-.66.51-.92.77h-42.19v2.52h42.19c.26,5.56.53,11.24.92,16.92-.39.24-.66.51-.92.75h-49.2c-.39-.24-.66-.51-.92-.75.26-2.28.53-4.56.92-6.82h42.21v-2.52h.79c-.26-.26-.53-.51-.79-.77v.77h-42.21c-.39-.26-.66-.51-.92-.77v-16.92c.26-.37.53-.61.92-.88,0,0,49.2,0,49.2,0ZM384.98,74.77c.26.26.53.51.79.88v20.22h41.29c.26,2.26.53,4.54.92,6.82-.39.24-.66.51-.92.75-16.48-.24-32.84-.51-49.2-.75v-27.04c2.37-.37,4.74-.61,7.11-.88h0ZM369.15,74.77c.26.26.53.51.79.88v27.04c-.26.24-.53.51-.79.75h-6.19c-.39-.24-.66-.51-.92-.75v-9.35h.92c-.39-.26-.66-.51-.92-.77v.77h-35.08v9.35c-2.4.24-4.76.51-7.13.75-.26-.24-.53-.51-.79-.75v-27.04c.26-.37.53-.61.79-.88h49.32ZM309.43,74.77c.26.26.53.51.79.88v27.04c-.26.24-.53.51-.79.75-2.4-.24-4.76-.51-7.13-.75v-27.04c2.37-.37,4.74-.61,7.13-.88h0ZM292.66,74.77c.29.26.55.51.95.88v18.57c-.39.26-.66.51-.95.88h-10.54l4.35,7.6c-.26.24-.53.51-.79.75h-6.19l-6.21-8.34h-22.81v7.6c-2.37.24-4.74.51-7,.75-.39-.24-.66-.51-.92-.75v-27.04c.26-.37.53-.61.92-.88h49.2v-.02ZM232.93,74.77c.26.26.53.51.79.88-.26,2.28-.53,4.54-.79,6.82h-42.21v3.3h42.21c.26,2.26.53,4.54.79,6.8-.26.26-.53.51-.79.77h-42.21v2.52h42.21c.26,2.26.53,4.54.79,6.82-.26.24-.53.51-.79.75h-49.2c-.39-.24-.66-.51-.92-.75v-27.04c.26-.37.53-.61.92-.88h49.2ZM124.78,75.65v-.88h50.12v7.7h-21.09v20.22c-.39.24-.66.51-.92.75h-6.06c-.39-.24-.66-.51-.92-.75v-20.22h-21.12v-6.82h0ZM116.09,74.77c.26.26.53.51.79.88v27.04c-.26.24-.53.51-.79.75-2.37-.24-4.76-.51-7.13-.75v-9.35h-35.08v9.35c-.39.24-.66.51-.92.75h-6.06c-.39-.24-.66-.51-.92-.75v-27.04c.26-.37.53-.61.92-.88h49.2,0ZM57.13,74.77c.26.26.53.51.92.88v27.04c-.39.24-.66.51-.92.75-2.37-.24-4.74-.51-6.98-.75v-16.05h-.92c-.26.24-.53.51-.79.88-.39.26-.66.51-.92.77-.39.24-.66.51-.92.88-.29.24-.55.51-.81.88-.39.26-.66.51-.92.77-.39.24-.66.51-.92.88-.26.26-.53.51-.79.88-.39.26-.66.51-.92.77-.39.24-.66.51-.92.88-.26.26-.53.51-.79.88-.39.26-.66.51-.92.77-.39.24-.66.51-.92.88-.26.26-.53.51-.79.88-.39.26-.66.51-.92.77v4.3c0,.75-8.84.75-8.84,0v-4.3c-.26-.26-.53-.51-.79-.77-.39-.37-.66-.61-.92-.88-.39-.37-.66-.63-.92-.88-.26-.26-.53-.51-.79-.77-.39-.37-.66-.61-.92-.88-.39-.37-.66-.63-.92-.88-.26-.26-.53-.51-.79-.77-.39-.37-.66-.61-.92-.88-.39-.37-.66-.63-.92-.88-.26-.26-.53-.51-.79-.77-.39-.37-.66-.63-.92-.88-.39-.37-.66-.63-.92-.88-.26-.26-.53-.51-.79-.77-.39-.37-.66-.63-.92-.88h-.92v16.05c-.26.24-.53.51-.79.75h-6.3c-.39-.24-.66-.51-.92-.75v-27.04c.26-.37.53-.61.92-.88h6.21c.26.26.53.51.79.88.26.26.53.51.92.9.26.24.53.51.92.75.26.26.53.51.79.88.26.26.53.51.92.9.26.24.53.51.92.75.26.26.53.51.79.88.26.26.53.51.92.9.26.24.53.51.92.88.26.26.53.51.79.77.26.24.53.51.92.88.26.24.53.51.92.88.26.26.53.51.79.77.26.24.53.51.92.88.26.24.53.51.92.88.26.26.53.51.79.77.26.24.53.51.92.88.26.24.53.51.92.88.29.26.55.51.81.77.26.24.53.51.92.88h1.72c.26-.37.53-.63.92-.88.26-.26.53-.51.92-.77.26-.37.53-.63.79-.88.26-.37.53-.63.92-.88.26-.26.53-.51.92-.77.26-.37.53-.63.79-.88.26-.37.53-.63.92-.88.26-.26.53-.51.92-.77.26-.37.53-.63.79-.88.26-.37.53-.63.92-.88.26-.26.53-.51.92-.77.26-.37.53-.63.79-.88.26-.39.53-.63.92-.9.26-.37.53-.61.92-.88.26-.24.53-.51.81-.75.26-.39.53-.63.92-.9.26-.37.53-.61.92-.88.26-.24.53-.51.79-.75.26-.39.53-.63.92-.9.26-.37.53-.61.92-.88h6.15ZM471.89,116.96c.26.24.53.51.92.88v6.7c-.39.24-.66.51-.92.88h-21.09v19.32c-2.37.26-4.74.53-6.98.9-.39-.37-.66-.63-.92-.9v-19.32h.92c-.39-.37-.66-.63-.92-.88v.88h-20.19c-.39-.37-.66-.63-.92-.88v-6.7c.26-.37.53-.63.92-.88h49.2-.02ZM411.24,116.96c.26.24.53.51.92.88v26.89c-.39.26-.66.53-.92.9h-6.08c-.39-.37-.66-.63-.92-.9v-19.32h.92c-.39-.37-.66-.63-.92-.88v.88h-35.08v19.32c-2.37.26-4.74.53-7.11.9-.26-.37-.53-.63-.79-.9v-26.89c.26-.37.53-.63.79-.88h49.2ZM352.41,116.96c.26.24.53.51.92.88v6.7c-.39.24-.66.51-.92.88h-42.19v2.52h42.19c.26,2.15.53,4.44.92,6.7-.39.26-.66.51-.92.88h-42.19v2.55h42.19c.26,2.13.53,4.41.92,6.67-.39.26-.66.53-.92.9h-49.2c-.39-.37-.66-.63-.92-.9v-26.89c.26-.37.53-.63.92-.88h49.2ZM249.56,117.84c.44-.34.75-.34.92,0,.26.24.53.51.92.77.26.24.53.51.79.88.26.24.53.51.92.88.26.26.53.51.92.77.26.24.53.51.79.88.26.24.53.51.92.88.26.26.53.51.92.77.26.24.53.51.79.88.26.24.53.51.92.88.26.26.53.51.92.77.26.24.53.51.79.88.29.26.55.51.95.88.26.26.53.51.92.77.26.24.53.51.79.88.26.26.53.51.92.88.26.26.53.51.92.77.26.24.53.51.79.88.26.26.53.51.92.88.26.26.53.51.92.77h1.72c.26-.26.53-.51.92-.77.26-.37.53-.61.79-.88.26-.37.53-.63.92-.88.26-.26.53-.51.92-.77.26-.37.53-.61.79-.88.26-.37.53-.63.92-.88.26-.26.53-.51.92-.77.26-.37.53-.61.79-.88.26-.37.53-.63.95-.88.26-.26.53-.51.92-.77.26-.37.53-.63.79-.88.26-.37.53-.63.92-.88.26-.26.53-.51.92-.77.26-.37.53-.63.79-.88.26-.37.53-.63.92-.88.26-.26.53-.51.92-.77.26-.37.53-.63.79-.88.26-.37.53-.63.92-.88.26-.26.53-.53.92-.77h6.98c.29,8.96.55,17.94.95,26.89-.39.26-.66.53-.95.9h-6.19c-.26-.37-.53-.63-.79-.9v-15.15h-.92c-.39.26-.66.51-.92.88-.26.26-.53.51-.79.77-.39.24-.66.51-.92.88-.39.26-.66.51-.92.88-.26.26-.53.51-.79.77-.39.24-.66.51-.92.88-.39.26-.66.51-.92.88-.26.26-.53.53-.79.77-.39.26-.66.51-.92.88-.42.26-.68.51-.95.9-.26.24-.53.51-.79.75-.39.26-.66.51-.92.88-.39.26-.66.51-.92.9v4.15c-.26.26-.53.53-.79.9h-7.91c-.39-.37-.66-.63-.92-.9v-4.15c-.39-.39-.66-.63-.92-.9-.26-.37-.53-.61-.79-.88-.39-.24-.66-.51-.92-.75-.39-.39-.66-.63-.95-.9-.26-.37-.53-.61-.79-.88-.39-.24-.66-.51-.92-.77-.39-.37-.66-.61-.92-.88-.26-.37-.53-.63-.79-.88-.39-.26-.66-.51-.92-.77-.39-.37-.66-.61-.92-.88-.26-.37-.53-.63-.79-.88-.39-.26-.66-.51-.92-.77-.39-.37-.66-.61-.92-.88-.26-.37-.53-.63-.79-.88h-.92v16.02c-2.37.26-4.74.53-7,.9-.39-.37-.66-.63-.92-.9.26-8.96.53-17.94.92-26.89h6.1ZM232.94,116.96c.26.24.53.51.79.88v6.7c-.26.24-.53.51-.79.88h-42.21v2.52h42.21c.26,2.15.53,4.44.79,6.7-.26.26-.53.51-.79.88h-42.21v2.55h42.21c.26,2.13.53,4.41.79,6.67-.26.26-.53.53-.79.9h-49.2c-.39-.37-.66-.63-.92-.9v-26.89c.26-.37.53-.63.92-.88h49.2ZM167.93,116.96c2.24.24,4.61.51,6.98.88v18.44c-.39.26-.66.51-.92.88-.26.26-.53.51-.79.9h-.92c-.39.24-.66.51-.92.75-.26.26-.53.51-.79.88h-.92c-.39.26-.66.51-.92.9-.26.24-.53.51-.79.75-.39.26-.66.51-.92.88h-.92c-.26.26-.53.51-.79.9-.39.24-.66.51-.92.75h-.92c-.26.26-.53.51-.79.88-.39.26-.66.53-.92.9-12.4-.37-24.67-.63-36.94-.9v-26.89c2.37-.37,4.76-.63,7.13-.88.26.24.53.51.79.88v20.22h26.36c.26-.39.53-.63.92-.9h.79c.26-.37.55-.61.95-.88.26-.24.53-.51.92-.77.26-.37.53-.61.79-.88h.92c.26-.37.53-.63.92-.88.26-.26.53-.51.79-.77h.92v-15.15c.26-.37.53-.63.92-.88h0ZM116.1,116.96c.26.24.53.51.79.88v26.89c-.26.26-.53.53-.79.9h-49.2c-.39-.37-.66-.63-.92-.9v-26.89c.26-.37.53-.63.92-.88h49.2ZM285.69,127.93v.77h.79c-.26-.26-.53-.51-.79-.77h0ZM15.87,128.7c0-.77-1.72-.77-1.72,0h1.72ZM327.39,82.32h34.11v2.99h-34.11v-2.99ZM74.08,124.75h34.11v13.26h-34.11v-13.26ZM74.08,82.32h34.11v3.27h-34.11v-3.27ZM72.94,40.31h34.11v3.25h-34.11v-3.25ZM251.31,83.18h34.11v4.25h-34.11v-4.25Z"/>
  </g>
</svg>